<mxfile host="app.diagrams.net" agent="Mozilla/5.0 (Macintosh; Intel Mac OS X 10_15_7) AppleWebKit/537.36 (KHTML, like Gecko) Chrome/126.0.0.0 Safari/537.36" version="24.7.6" pages="2">
  <diagram name="Page-1" id="N3m804BsTCfYX69NOMRj">
    <mxGraphModel>
      <root>
        <mxCell id="0" />
        <mxCell id="1" parent="0" />
      </root>
    </mxGraphModel>
  </diagram>
  <diagram id="yRNmlwHOEE07zWJLfz4I" name="Page-2">
    <mxGraphModel dx="2537" dy="2194" grid="1" gridSize="10" guides="1" tooltips="1" connect="1" arrows="1" fold="1" page="1" pageScale="1" pageWidth="827" pageHeight="1169" math="0" shadow="0">
      <root>
        <mxCell id="0" />
        <mxCell id="1" parent="0" />
        <mxCell id="z5KGhQnNiYaVHTY9umxS-7" value="GameController" style="swimlane;fontStyle=1;align=center;verticalAlign=top;childLayout=stackLayout;horizontal=1;startSize=26;horizontalStack=0;resizeParent=1;resizeParentMax=0;resizeLast=0;collapsible=1;marginBottom=0;whiteSpace=wrap;html=1;" vertex="1" parent="1">
          <mxGeometry x="-120" y="-180" width="240" height="140" as="geometry" />
        </mxCell>
        <mxCell id="z5KGhQnNiYaVHTY9umxS-8" value="" style="line;strokeWidth=1;fillColor=none;align=left;verticalAlign=middle;spacingTop=-1;spacingLeft=3;spacingRight=3;rotatable=0;labelPosition=right;points=[];portConstraint=eastwest;strokeColor=inherit;" vertex="1" parent="z5KGhQnNiYaVHTY9umxS-7">
          <mxGeometry y="26" width="240" height="8" as="geometry" />
        </mxCell>
        <mxCell id="z5KGhQnNiYaVHTY9umxS-9" value="createGame() : Game&lt;div&gt;&lt;div&gt;conductToss()&lt;/div&gt;&lt;div&gt;makeMoves()&lt;/div&gt;&lt;div&gt;displayBoard()&lt;/div&gt;&lt;div&gt;getWinner()&lt;/div&gt;&lt;div&gt;getGameState() : GameState&lt;/div&gt;&lt;/div&gt;" style="text;strokeColor=none;fillColor=none;align=left;verticalAlign=top;spacingLeft=4;spacingRight=4;overflow=hidden;rotatable=0;points=[[0,0.5],[1,0.5]];portConstraint=eastwest;whiteSpace=wrap;html=1;" vertex="1" parent="z5KGhQnNiYaVHTY9umxS-7">
          <mxGeometry y="34" width="240" height="106" as="geometry" />
        </mxCell>
        <mxCell id="z5KGhQnNiYaVHTY9umxS-10" value="&lt;b&gt;HumanPlayer&lt;/b&gt;" style="swimlane;fontStyle=0;childLayout=stackLayout;horizontal=1;startSize=26;fillColor=none;horizontalStack=0;resizeParent=1;resizeParentMax=0;resizeLast=0;collapsible=1;marginBottom=0;whiteSpace=wrap;html=1;" vertex="1" parent="1">
          <mxGeometry x="607" y="304" width="220" height="42" as="geometry" />
        </mxCell>
        <mxCell id="z5KGhQnNiYaVHTY9umxS-11" value="&lt;b&gt;BotPlayer&lt;/b&gt;" style="swimlane;fontStyle=0;childLayout=stackLayout;horizontal=1;startSize=26;fillColor=none;horizontalStack=0;resizeParent=1;resizeParentMax=0;resizeLast=0;collapsible=1;marginBottom=0;whiteSpace=wrap;html=1;" vertex="1" parent="1">
          <mxGeometry x="607" y="380" width="220" height="78" as="geometry" />
        </mxCell>
        <mxCell id="z5KGhQnNiYaVHTY9umxS-12" value="playingStrategy : BotPlayingStrategy&lt;div&gt;&lt;br&gt;&lt;/div&gt;" style="text;strokeColor=none;fillColor=none;align=left;verticalAlign=top;spacingLeft=4;spacingRight=4;overflow=hidden;rotatable=0;points=[[0,0.5],[1,0.5]];portConstraint=eastwest;whiteSpace=wrap;html=1;" vertex="1" parent="z5KGhQnNiYaVHTY9umxS-11">
          <mxGeometry y="26" width="220" height="26" as="geometry" />
        </mxCell>
        <mxCell id="z5KGhQnNiYaVHTY9umxS-13" value="difficultyLevel : BotDifficultyLevel" style="text;strokeColor=none;fillColor=none;align=left;verticalAlign=top;spacingLeft=4;spacingRight=4;overflow=hidden;rotatable=0;points=[[0,0.5],[1,0.5]];portConstraint=eastwest;whiteSpace=wrap;html=1;" vertex="1" parent="z5KGhQnNiYaVHTY9umxS-11">
          <mxGeometry y="52" width="220" height="26" as="geometry" />
        </mxCell>
        <mxCell id="z5KGhQnNiYaVHTY9umxS-14" value="&lt;b&gt;Cell&lt;/b&gt;" style="swimlane;fontStyle=0;childLayout=stackLayout;horizontal=1;startSize=26;fillColor=none;horizontalStack=0;resizeParent=1;resizeParentMax=0;resizeLast=0;collapsible=1;marginBottom=0;whiteSpace=wrap;html=1;" vertex="1" parent="1">
          <mxGeometry x="530" y="21" width="140" height="150" as="geometry" />
        </mxCell>
        <mxCell id="z5KGhQnNiYaVHTY9umxS-15" value="row : int" style="text;strokeColor=none;fillColor=none;align=left;verticalAlign=top;spacingLeft=4;spacingRight=4;overflow=hidden;rotatable=0;points=[[0,0.5],[1,0.5]];portConstraint=eastwest;whiteSpace=wrap;html=1;" vertex="1" parent="z5KGhQnNiYaVHTY9umxS-14">
          <mxGeometry y="26" width="140" height="26" as="geometry" />
        </mxCell>
        <mxCell id="z5KGhQnNiYaVHTY9umxS-16" value="column : int" style="text;strokeColor=none;fillColor=none;align=left;verticalAlign=top;spacingLeft=4;spacingRight=4;overflow=hidden;rotatable=0;points=[[0,0.5],[1,0.5]];portConstraint=eastwest;whiteSpace=wrap;html=1;" vertex="1" parent="z5KGhQnNiYaVHTY9umxS-14">
          <mxGeometry y="52" width="140" height="26" as="geometry" />
        </mxCell>
        <mxCell id="z5KGhQnNiYaVHTY9umxS-17" value="player : Player&lt;div&gt;&lt;br&gt;&lt;/div&gt;&lt;div&gt;status : CellStatus&lt;/div&gt;" style="text;strokeColor=none;fillColor=none;align=left;verticalAlign=top;spacingLeft=4;spacingRight=4;overflow=hidden;rotatable=0;points=[[0,0.5],[1,0.5]];portConstraint=eastwest;whiteSpace=wrap;html=1;" vertex="1" parent="z5KGhQnNiYaVHTY9umxS-14">
          <mxGeometry y="78" width="140" height="72" as="geometry" />
        </mxCell>
        <mxCell id="z5KGhQnNiYaVHTY9umxS-18" value="&lt;b&gt;Symbol&lt;/b&gt;" style="swimlane;fontStyle=0;childLayout=stackLayout;horizontal=1;startSize=26;fillColor=none;horizontalStack=0;resizeParent=1;resizeParentMax=0;resizeLast=0;collapsible=1;marginBottom=0;whiteSpace=wrap;html=1;" vertex="1" parent="1">
          <mxGeometry x="290" y="220" width="190" height="52" as="geometry" />
        </mxCell>
        <mxCell id="z5KGhQnNiYaVHTY9umxS-19" value="character : char" style="text;strokeColor=none;fillColor=none;align=left;verticalAlign=top;spacingLeft=4;spacingRight=4;overflow=hidden;rotatable=0;points=[[0,0.5],[1,0.5]];portConstraint=eastwest;whiteSpace=wrap;html=1;" vertex="1" parent="z5KGhQnNiYaVHTY9umxS-18">
          <mxGeometry y="26" width="190" height="26" as="geometry" />
        </mxCell>
        <mxCell id="z5KGhQnNiYaVHTY9umxS-20" value="&amp;lt;&amp;lt;interface&amp;gt;&amp;gt;&lt;div&gt;BotPlayingStrategy&lt;/div&gt;&lt;div&gt;makeMove() : Move&lt;/div&gt;" style="html=1;whiteSpace=wrap;" vertex="1" parent="1">
          <mxGeometry x="550" y="480" width="220" height="50" as="geometry" />
        </mxCell>
        <mxCell id="z5KGhQnNiYaVHTY9umxS-21" value="EasyBotPlayingStrategy" style="swimlane;fontStyle=1;align=center;verticalAlign=top;childLayout=stackLayout;horizontal=1;startSize=26;horizontalStack=0;resizeParent=1;resizeParentMax=0;resizeLast=0;collapsible=1;marginBottom=0;whiteSpace=wrap;html=1;" vertex="1" parent="1">
          <mxGeometry x="400" y="585" width="160" height="60" as="geometry" />
        </mxCell>
        <mxCell id="z5KGhQnNiYaVHTY9umxS-22" value="" style="line;strokeWidth=1;fillColor=none;align=left;verticalAlign=middle;spacingTop=-1;spacingLeft=3;spacingRight=3;rotatable=0;labelPosition=right;points=[];portConstraint=eastwest;strokeColor=inherit;" vertex="1" parent="z5KGhQnNiYaVHTY9umxS-21">
          <mxGeometry y="26" width="160" height="8" as="geometry" />
        </mxCell>
        <mxCell id="z5KGhQnNiYaVHTY9umxS-23" value="makeMove() : Move" style="text;strokeColor=none;fillColor=none;align=left;verticalAlign=top;spacingLeft=4;spacingRight=4;overflow=hidden;rotatable=0;points=[[0,0.5],[1,0.5]];portConstraint=eastwest;whiteSpace=wrap;html=1;" vertex="1" parent="z5KGhQnNiYaVHTY9umxS-21">
          <mxGeometry y="34" width="160" height="26" as="geometry" />
        </mxCell>
        <mxCell id="z5KGhQnNiYaVHTY9umxS-24" value="MediumBotPlayingStrategy" style="swimlane;fontStyle=1;align=center;verticalAlign=top;childLayout=stackLayout;horizontal=1;startSize=26;horizontalStack=0;resizeParent=1;resizeParentMax=0;resizeLast=0;collapsible=1;marginBottom=0;whiteSpace=wrap;html=1;" vertex="1" parent="1">
          <mxGeometry x="580" y="585" width="160" height="60" as="geometry" />
        </mxCell>
        <mxCell id="z5KGhQnNiYaVHTY9umxS-25" value="" style="line;strokeWidth=1;fillColor=none;align=left;verticalAlign=middle;spacingTop=-1;spacingLeft=3;spacingRight=3;rotatable=0;labelPosition=right;points=[];portConstraint=eastwest;strokeColor=inherit;" vertex="1" parent="z5KGhQnNiYaVHTY9umxS-24">
          <mxGeometry y="26" width="160" height="8" as="geometry" />
        </mxCell>
        <mxCell id="z5KGhQnNiYaVHTY9umxS-26" value="makeMove() : Move" style="text;strokeColor=none;fillColor=none;align=left;verticalAlign=top;spacingLeft=4;spacingRight=4;overflow=hidden;rotatable=0;points=[[0,0.5],[1,0.5]];portConstraint=eastwest;whiteSpace=wrap;html=1;" vertex="1" parent="z5KGhQnNiYaVHTY9umxS-24">
          <mxGeometry y="34" width="160" height="26" as="geometry" />
        </mxCell>
        <mxCell id="z5KGhQnNiYaVHTY9umxS-27" value="HardBotPlayingStrategy" style="swimlane;fontStyle=1;align=center;verticalAlign=top;childLayout=stackLayout;horizontal=1;startSize=26;horizontalStack=0;resizeParent=1;resizeParentMax=0;resizeLast=0;collapsible=1;marginBottom=0;whiteSpace=wrap;html=1;" vertex="1" parent="1">
          <mxGeometry x="750" y="585" width="160" height="60" as="geometry" />
        </mxCell>
        <mxCell id="z5KGhQnNiYaVHTY9umxS-28" value="" style="line;strokeWidth=1;fillColor=none;align=left;verticalAlign=middle;spacingTop=-1;spacingLeft=3;spacingRight=3;rotatable=0;labelPosition=right;points=[];portConstraint=eastwest;strokeColor=inherit;" vertex="1" parent="z5KGhQnNiYaVHTY9umxS-27">
          <mxGeometry y="26" width="160" height="8" as="geometry" />
        </mxCell>
        <mxCell id="z5KGhQnNiYaVHTY9umxS-29" value="makeMove() : Move" style="text;strokeColor=none;fillColor=none;align=left;verticalAlign=top;spacingLeft=4;spacingRight=4;overflow=hidden;rotatable=0;points=[[0,0.5],[1,0.5]];portConstraint=eastwest;whiteSpace=wrap;html=1;" vertex="1" parent="z5KGhQnNiYaVHTY9umxS-27">
          <mxGeometry y="34" width="160" height="26" as="geometry" />
        </mxCell>
        <mxCell id="z5KGhQnNiYaVHTY9umxS-30" value="«interface»&lt;br&gt;&lt;b&gt;GameWinningStrategy&lt;/b&gt;&lt;div&gt;checkWinner(Board, Move) : bool&lt;/div&gt;" style="html=1;whiteSpace=wrap;" vertex="1" parent="1">
          <mxGeometry x="-130" y="360" width="260" height="50" as="geometry" />
        </mxCell>
        <mxCell id="z5KGhQnNiYaVHTY9umxS-31" value="RowWinningStrategy" style="swimlane;fontStyle=1;align=center;verticalAlign=top;childLayout=stackLayout;horizontal=1;startSize=26;horizontalStack=0;resizeParent=1;resizeParentMax=0;resizeLast=0;collapsible=1;marginBottom=0;whiteSpace=wrap;html=1;" vertex="1" parent="1">
          <mxGeometry x="-380" y="462" width="240" height="86" as="geometry" />
        </mxCell>
        <mxCell id="z5KGhQnNiYaVHTY9umxS-32" value="rowMaps : Map&amp;lt;int, Map&amp;lt;Sysmbol, int&amp;gt;&amp;gt;" style="text;strokeColor=none;fillColor=none;align=left;verticalAlign=top;spacingLeft=4;spacingRight=4;overflow=hidden;rotatable=0;points=[[0,0.5],[1,0.5]];portConstraint=eastwest;whiteSpace=wrap;html=1;" vertex="1" parent="z5KGhQnNiYaVHTY9umxS-31">
          <mxGeometry y="26" width="240" height="26" as="geometry" />
        </mxCell>
        <mxCell id="z5KGhQnNiYaVHTY9umxS-33" value="" style="line;strokeWidth=1;fillColor=none;align=left;verticalAlign=middle;spacingTop=-1;spacingLeft=3;spacingRight=3;rotatable=0;labelPosition=right;points=[];portConstraint=eastwest;strokeColor=inherit;" vertex="1" parent="z5KGhQnNiYaVHTY9umxS-31">
          <mxGeometry y="52" width="240" height="8" as="geometry" />
        </mxCell>
        <mxCell id="z5KGhQnNiYaVHTY9umxS-34" value="checkWinner(Board, Move) : bool" style="text;strokeColor=none;fillColor=none;align=left;verticalAlign=top;spacingLeft=4;spacingRight=4;overflow=hidden;rotatable=0;points=[[0,0.5],[1,0.5]];portConstraint=eastwest;whiteSpace=wrap;html=1;" vertex="1" parent="z5KGhQnNiYaVHTY9umxS-31">
          <mxGeometry y="60" width="240" height="26" as="geometry" />
        </mxCell>
        <mxCell id="z5KGhQnNiYaVHTY9umxS-35" value="ColumnWinningStrategy" style="swimlane;fontStyle=1;align=center;verticalAlign=top;childLayout=stackLayout;horizontal=1;startSize=26;horizontalStack=0;resizeParent=1;resizeParentMax=0;resizeLast=0;collapsible=1;marginBottom=0;whiteSpace=wrap;html=1;" vertex="1" parent="1">
          <mxGeometry x="-120" y="462" width="250" height="86" as="geometry" />
        </mxCell>
        <mxCell id="z5KGhQnNiYaVHTY9umxS-36" value="columnMaps : Map&amp;lt;int, Map&amp;lt;Sysmbol, int&amp;gt;&amp;gt;" style="text;strokeColor=none;fillColor=none;align=left;verticalAlign=top;spacingLeft=4;spacingRight=4;overflow=hidden;rotatable=0;points=[[0,0.5],[1,0.5]];portConstraint=eastwest;whiteSpace=wrap;html=1;" vertex="1" parent="z5KGhQnNiYaVHTY9umxS-35">
          <mxGeometry y="26" width="250" height="26" as="geometry" />
        </mxCell>
        <mxCell id="z5KGhQnNiYaVHTY9umxS-37" value="" style="line;strokeWidth=1;fillColor=none;align=left;verticalAlign=middle;spacingTop=-1;spacingLeft=3;spacingRight=3;rotatable=0;labelPosition=right;points=[];portConstraint=eastwest;strokeColor=inherit;" vertex="1" parent="z5KGhQnNiYaVHTY9umxS-35">
          <mxGeometry y="52" width="250" height="8" as="geometry" />
        </mxCell>
        <mxCell id="z5KGhQnNiYaVHTY9umxS-38" value="checkWinner(Board, Move) : bool" style="text;strokeColor=none;fillColor=none;align=left;verticalAlign=top;spacingLeft=4;spacingRight=4;overflow=hidden;rotatable=0;points=[[0,0.5],[1,0.5]];portConstraint=eastwest;whiteSpace=wrap;html=1;" vertex="1" parent="z5KGhQnNiYaVHTY9umxS-35">
          <mxGeometry y="60" width="250" height="26" as="geometry" />
        </mxCell>
        <mxCell id="z5KGhQnNiYaVHTY9umxS-39" value="DiagonalWinningStrategy" style="swimlane;fontStyle=1;align=center;verticalAlign=top;childLayout=stackLayout;horizontal=1;startSize=26;horizontalStack=0;resizeParent=1;resizeParentMax=0;resizeLast=0;collapsible=1;marginBottom=0;whiteSpace=wrap;html=1;" vertex="1" parent="1">
          <mxGeometry x="140" y="458" width="260" height="94" as="geometry" />
        </mxCell>
        <mxCell id="z5KGhQnNiYaVHTY9umxS-40" value="leftDiagonalMap : Map&amp;lt;Symbol, int&amp;gt;&lt;div&gt;rightDiagonalMap : Map&amp;lt;Symbol, int&amp;gt;&lt;br&gt;&lt;/div&gt;" style="text;strokeColor=none;fillColor=none;align=left;verticalAlign=top;spacingLeft=4;spacingRight=4;overflow=hidden;rotatable=0;points=[[0,0.5],[1,0.5]];portConstraint=eastwest;whiteSpace=wrap;html=1;" vertex="1" parent="z5KGhQnNiYaVHTY9umxS-39">
          <mxGeometry y="26" width="260" height="34" as="geometry" />
        </mxCell>
        <mxCell id="z5KGhQnNiYaVHTY9umxS-41" value="" style="line;strokeWidth=1;fillColor=none;align=left;verticalAlign=middle;spacingTop=-1;spacingLeft=3;spacingRight=3;rotatable=0;labelPosition=right;points=[];portConstraint=eastwest;strokeColor=inherit;" vertex="1" parent="z5KGhQnNiYaVHTY9umxS-39">
          <mxGeometry y="60" width="260" height="8" as="geometry" />
        </mxCell>
        <mxCell id="z5KGhQnNiYaVHTY9umxS-42" value="checkWinner(Board, Move) : bool" style="text;strokeColor=none;fillColor=none;align=left;verticalAlign=top;spacingLeft=4;spacingRight=4;overflow=hidden;rotatable=0;points=[[0,0.5],[1,0.5]];portConstraint=eastwest;whiteSpace=wrap;html=1;" vertex="1" parent="z5KGhQnNiYaVHTY9umxS-39">
          <mxGeometry y="68" width="260" height="26" as="geometry" />
        </mxCell>
        <mxCell id="z5KGhQnNiYaVHTY9umxS-43" value="&amp;lt;&amp;lt;enum&amp;gt;&amp;gt;&lt;div&gt;CellState&lt;/div&gt;" style="swimlane;fontStyle=0;childLayout=stackLayout;horizontal=1;startSize=40;fillColor=none;horizontalStack=0;resizeParent=1;resizeParentMax=0;resizeLast=0;collapsible=1;marginBottom=0;whiteSpace=wrap;html=1;" vertex="1" parent="1">
          <mxGeometry x="720" y="49" width="140" height="94" as="geometry" />
        </mxCell>
        <mxCell id="z5KGhQnNiYaVHTY9umxS-44" value="FILLED&lt;div&gt;EMPTY&lt;/div&gt;" style="text;strokeColor=none;fillColor=none;align=left;verticalAlign=top;spacingLeft=4;spacingRight=4;overflow=hidden;rotatable=0;points=[[0,0.5],[1,0.5]];portConstraint=eastwest;whiteSpace=wrap;html=1;" vertex="1" parent="z5KGhQnNiYaVHTY9umxS-43">
          <mxGeometry y="40" width="140" height="54" as="geometry" />
        </mxCell>
        <mxCell id="z5KGhQnNiYaVHTY9umxS-45" value="Extends" style="endArrow=block;endSize=16;endFill=0;html=1;rounded=0;exitX=0.005;exitY=1.043;exitDx=0;exitDy=0;exitPerimeter=0;entryX=0.991;entryY=0.759;entryDx=0;entryDy=0;entryPerimeter=0;" edge="1" parent="1" source="z5KGhQnNiYaVHTY9umxS-12" target="z5KGhQnNiYaVHTY9umxS-68">
          <mxGeometry x="-0.1166" y="1" width="160" relative="1" as="geometry">
            <mxPoint x="340" y="370" as="sourcePoint" />
            <mxPoint x="490" y="360" as="targetPoint" />
            <mxPoint as="offset" />
          </mxGeometry>
        </mxCell>
        <mxCell id="z5KGhQnNiYaVHTY9umxS-46" value="Extends" style="endArrow=block;endSize=16;endFill=0;html=1;rounded=0;exitX=0;exitY=0.75;exitDx=0;exitDy=0;entryX=1;entryY=0.5;entryDx=0;entryDy=0;" edge="1" parent="1" source="z5KGhQnNiYaVHTY9umxS-10" target="z5KGhQnNiYaVHTY9umxS-68">
          <mxGeometry width="160" relative="1" as="geometry">
            <mxPoint x="370" y="430" as="sourcePoint" />
            <mxPoint x="530" y="430" as="targetPoint" />
          </mxGeometry>
        </mxCell>
        <mxCell id="z5KGhQnNiYaVHTY9umxS-47" value="" style="endArrow=open;endSize=12;dashed=1;html=1;rounded=0;exitX=0.5;exitY=0;exitDx=0;exitDy=0;entryX=0.25;entryY=1;entryDx=0;entryDy=0;" edge="1" parent="1" source="z5KGhQnNiYaVHTY9umxS-21" target="z5KGhQnNiYaVHTY9umxS-20">
          <mxGeometry width="160" relative="1" as="geometry">
            <mxPoint x="440" y="550" as="sourcePoint" />
            <mxPoint x="600" y="550" as="targetPoint" />
          </mxGeometry>
        </mxCell>
        <mxCell id="z5KGhQnNiYaVHTY9umxS-48" value="" style="endArrow=open;endSize=12;dashed=1;html=1;rounded=0;exitX=0.5;exitY=0;exitDx=0;exitDy=0;entryX=0.5;entryY=1;entryDx=0;entryDy=0;" edge="1" parent="1" source="z5KGhQnNiYaVHTY9umxS-24" target="z5KGhQnNiYaVHTY9umxS-20">
          <mxGeometry width="160" relative="1" as="geometry">
            <mxPoint x="370" y="580" as="sourcePoint" />
            <mxPoint x="530" y="580" as="targetPoint" />
          </mxGeometry>
        </mxCell>
        <mxCell id="z5KGhQnNiYaVHTY9umxS-49" value="" style="endArrow=open;endSize=12;dashed=1;html=1;rounded=0;exitX=0.5;exitY=0;exitDx=0;exitDy=0;entryX=0.75;entryY=1;entryDx=0;entryDy=0;" edge="1" parent="1" source="z5KGhQnNiYaVHTY9umxS-27" target="z5KGhQnNiYaVHTY9umxS-20">
          <mxGeometry width="160" relative="1" as="geometry">
            <mxPoint x="370" y="580" as="sourcePoint" />
            <mxPoint x="530" y="580" as="targetPoint" />
          </mxGeometry>
        </mxCell>
        <mxCell id="z5KGhQnNiYaVHTY9umxS-50" value="" style="endArrow=open;endSize=12;dashed=1;html=1;rounded=0;exitX=0.5;exitY=0;exitDx=0;exitDy=0;entryX=0.25;entryY=1;entryDx=0;entryDy=0;" edge="1" parent="1" source="z5KGhQnNiYaVHTY9umxS-31" target="z5KGhQnNiYaVHTY9umxS-30">
          <mxGeometry width="160" relative="1" as="geometry">
            <mxPoint x="-170" y="520" as="sourcePoint" />
            <mxPoint x="-10" y="520" as="targetPoint" />
          </mxGeometry>
        </mxCell>
        <mxCell id="z5KGhQnNiYaVHTY9umxS-51" value="" style="endArrow=open;endSize=12;dashed=1;html=1;rounded=0;exitX=0.5;exitY=0;exitDx=0;exitDy=0;entryX=0.5;entryY=1;entryDx=0;entryDy=0;" edge="1" parent="1" source="z5KGhQnNiYaVHTY9umxS-35" target="z5KGhQnNiYaVHTY9umxS-30">
          <mxGeometry width="160" relative="1" as="geometry">
            <mxPoint x="-170" y="520" as="sourcePoint" />
            <mxPoint x="-10" y="520" as="targetPoint" />
          </mxGeometry>
        </mxCell>
        <mxCell id="z5KGhQnNiYaVHTY9umxS-52" value="" style="endArrow=open;endSize=12;dashed=1;html=1;rounded=0;exitX=0.5;exitY=0;exitDx=0;exitDy=0;entryX=0.75;entryY=1;entryDx=0;entryDy=0;" edge="1" parent="1" source="z5KGhQnNiYaVHTY9umxS-39" target="z5KGhQnNiYaVHTY9umxS-30">
          <mxGeometry width="160" relative="1" as="geometry">
            <mxPoint x="-170" y="520" as="sourcePoint" />
            <mxPoint x="-10" y="520" as="targetPoint" />
          </mxGeometry>
        </mxCell>
        <mxCell id="z5KGhQnNiYaVHTY9umxS-62" value="Board" style="swimlane;fontStyle=1;align=center;verticalAlign=top;childLayout=stackLayout;horizontal=1;startSize=26;horizontalStack=0;resizeParent=1;resizeParentMax=0;resizeLast=0;collapsible=1;marginBottom=0;whiteSpace=wrap;html=1;" vertex="1" parent="1">
          <mxGeometry x="290" y="40" width="190" height="112" as="geometry" />
        </mxCell>
        <mxCell id="z5KGhQnNiYaVHTY9umxS-63" value="dimension : int" style="text;strokeColor=none;fillColor=none;align=left;verticalAlign=top;spacingLeft=4;spacingRight=4;overflow=hidden;rotatable=0;points=[[0,0.5],[1,0.5]];portConstraint=eastwest;whiteSpace=wrap;html=1;" vertex="1" parent="z5KGhQnNiYaVHTY9umxS-62">
          <mxGeometry y="26" width="190" height="26" as="geometry" />
        </mxCell>
        <mxCell id="z5KGhQnNiYaVHTY9umxS-64" value="grid : List&amp;lt;List&amp;lt;Cell&amp;gt;&amp;gt;" style="text;strokeColor=none;fillColor=none;align=left;verticalAlign=top;spacingLeft=4;spacingRight=4;overflow=hidden;rotatable=0;points=[[0,0.5],[1,0.5]];portConstraint=eastwest;whiteSpace=wrap;html=1;" vertex="1" parent="z5KGhQnNiYaVHTY9umxS-62">
          <mxGeometry y="52" width="190" height="26" as="geometry" />
        </mxCell>
        <mxCell id="z5KGhQnNiYaVHTY9umxS-65" value="" style="line;strokeWidth=1;fillColor=none;align=left;verticalAlign=middle;spacingTop=-1;spacingLeft=3;spacingRight=3;rotatable=0;labelPosition=right;points=[];portConstraint=eastwest;strokeColor=inherit;" vertex="1" parent="z5KGhQnNiYaVHTY9umxS-62">
          <mxGeometry y="78" width="190" height="8" as="geometry" />
        </mxCell>
        <mxCell id="z5KGhQnNiYaVHTY9umxS-66" value="displayBoard()" style="text;strokeColor=none;fillColor=none;align=left;verticalAlign=top;spacingLeft=4;spacingRight=4;overflow=hidden;rotatable=0;points=[[0,0.5],[1,0.5]];portConstraint=eastwest;whiteSpace=wrap;html=1;" vertex="1" parent="z5KGhQnNiYaVHTY9umxS-62">
          <mxGeometry y="86" width="190" height="26" as="geometry" />
        </mxCell>
        <mxCell id="z5KGhQnNiYaVHTY9umxS-67" value="Player" style="swimlane;fontStyle=1;align=center;verticalAlign=top;childLayout=stackLayout;horizontal=1;startSize=26;horizontalStack=0;resizeParent=1;resizeParentMax=0;resizeLast=0;collapsible=1;marginBottom=0;whiteSpace=wrap;html=1;" vertex="1" parent="1">
          <mxGeometry x="290" y="320" width="190" height="112" as="geometry" />
        </mxCell>
        <mxCell id="z5KGhQnNiYaVHTY9umxS-68" value="name : String" style="text;strokeColor=none;fillColor=none;align=left;verticalAlign=top;spacingLeft=4;spacingRight=4;overflow=hidden;rotatable=0;points=[[0,0.5],[1,0.5]];portConstraint=eastwest;whiteSpace=wrap;html=1;" vertex="1" parent="z5KGhQnNiYaVHTY9umxS-67">
          <mxGeometry y="26" width="190" height="26" as="geometry" />
        </mxCell>
        <mxCell id="z5KGhQnNiYaVHTY9umxS-69" value="symbol : Symbol" style="text;strokeColor=none;fillColor=none;align=left;verticalAlign=top;spacingLeft=4;spacingRight=4;overflow=hidden;rotatable=0;points=[[0,0.5],[1,0.5]];portConstraint=eastwest;whiteSpace=wrap;html=1;" vertex="1" parent="z5KGhQnNiYaVHTY9umxS-67">
          <mxGeometry y="52" width="190" height="26" as="geometry" />
        </mxCell>
        <mxCell id="z5KGhQnNiYaVHTY9umxS-70" value="" style="line;strokeWidth=1;fillColor=none;align=left;verticalAlign=middle;spacingTop=-1;spacingLeft=3;spacingRight=3;rotatable=0;labelPosition=right;points=[];portConstraint=eastwest;strokeColor=inherit;" vertex="1" parent="z5KGhQnNiYaVHTY9umxS-67">
          <mxGeometry y="78" width="190" height="8" as="geometry" />
        </mxCell>
        <mxCell id="z5KGhQnNiYaVHTY9umxS-71" value="executeMove(Board) : Move" style="text;strokeColor=none;fillColor=none;align=left;verticalAlign=top;spacingLeft=4;spacingRight=4;overflow=hidden;rotatable=0;points=[[0,0.5],[1,0.5]];portConstraint=eastwest;whiteSpace=wrap;html=1;" vertex="1" parent="z5KGhQnNiYaVHTY9umxS-67">
          <mxGeometry y="86" width="190" height="26" as="geometry" />
        </mxCell>
        <mxCell id="z5KGhQnNiYaVHTY9umxS-72" value="GameState" style="swimlane;fontStyle=0;childLayout=stackLayout;horizontal=1;startSize=26;fillColor=none;horizontalStack=0;resizeParent=1;resizeParentMax=0;resizeLast=0;collapsible=1;marginBottom=0;whiteSpace=wrap;html=1;" vertex="1" parent="1">
          <mxGeometry x="-350" y="130" width="140" height="104" as="geometry" />
        </mxCell>
        <mxCell id="z5KGhQnNiYaVHTY9umxS-73" value="IN_PROGRESS" style="text;strokeColor=none;fillColor=none;align=left;verticalAlign=top;spacingLeft=4;spacingRight=4;overflow=hidden;rotatable=0;points=[[0,0.5],[1,0.5]];portConstraint=eastwest;whiteSpace=wrap;html=1;" vertex="1" parent="z5KGhQnNiYaVHTY9umxS-72">
          <mxGeometry y="26" width="140" height="26" as="geometry" />
        </mxCell>
        <mxCell id="z5KGhQnNiYaVHTY9umxS-74" value="ENDED" style="text;strokeColor=none;fillColor=none;align=left;verticalAlign=top;spacingLeft=4;spacingRight=4;overflow=hidden;rotatable=0;points=[[0,0.5],[1,0.5]];portConstraint=eastwest;whiteSpace=wrap;html=1;" vertex="1" parent="z5KGhQnNiYaVHTY9umxS-72">
          <mxGeometry y="52" width="140" height="26" as="geometry" />
        </mxCell>
        <mxCell id="z5KGhQnNiYaVHTY9umxS-75" value="DRAW" style="text;strokeColor=none;fillColor=none;align=left;verticalAlign=top;spacingLeft=4;spacingRight=4;overflow=hidden;rotatable=0;points=[[0,0.5],[1,0.5]];portConstraint=eastwest;whiteSpace=wrap;html=1;" vertex="1" parent="z5KGhQnNiYaVHTY9umxS-72">
          <mxGeometry y="78" width="140" height="26" as="geometry" />
        </mxCell>
        <mxCell id="z5KGhQnNiYaVHTY9umxS-76" value="BotDifficultyLevel" style="swimlane;fontStyle=0;childLayout=stackLayout;horizontal=1;startSize=26;fillColor=none;horizontalStack=0;resizeParent=1;resizeParentMax=0;resizeLast=0;collapsible=1;marginBottom=0;whiteSpace=wrap;html=1;" vertex="1" parent="1">
          <mxGeometry x="890" y="367" width="140" height="104" as="geometry" />
        </mxCell>
        <mxCell id="z5KGhQnNiYaVHTY9umxS-77" value="EASY" style="text;strokeColor=none;fillColor=none;align=left;verticalAlign=top;spacingLeft=4;spacingRight=4;overflow=hidden;rotatable=0;points=[[0,0.5],[1,0.5]];portConstraint=eastwest;whiteSpace=wrap;html=1;" vertex="1" parent="z5KGhQnNiYaVHTY9umxS-76">
          <mxGeometry y="26" width="140" height="26" as="geometry" />
        </mxCell>
        <mxCell id="z5KGhQnNiYaVHTY9umxS-78" value="MEDIUM" style="text;strokeColor=none;fillColor=none;align=left;verticalAlign=top;spacingLeft=4;spacingRight=4;overflow=hidden;rotatable=0;points=[[0,0.5],[1,0.5]];portConstraint=eastwest;whiteSpace=wrap;html=1;" vertex="1" parent="z5KGhQnNiYaVHTY9umxS-76">
          <mxGeometry y="52" width="140" height="26" as="geometry" />
        </mxCell>
        <mxCell id="z5KGhQnNiYaVHTY9umxS-79" value="HARD" style="text;strokeColor=none;fillColor=none;align=left;verticalAlign=top;spacingLeft=4;spacingRight=4;overflow=hidden;rotatable=0;points=[[0,0.5],[1,0.5]];portConstraint=eastwest;whiteSpace=wrap;html=1;" vertex="1" parent="z5KGhQnNiYaVHTY9umxS-76">
          <mxGeometry y="78" width="140" height="26" as="geometry" />
        </mxCell>
        <mxCell id="z5KGhQnNiYaVHTY9umxS-56" value="Game" style="swimlane;fontStyle=1;align=center;verticalAlign=top;childLayout=stackLayout;horizontal=1;startSize=26;horizontalStack=0;resizeParent=1;resizeParentMax=0;resizeLast=0;collapsible=1;marginBottom=0;whiteSpace=wrap;html=1;" vertex="1" parent="1">
          <mxGeometry x="-115" y="14" width="240" height="290" as="geometry" />
        </mxCell>
        <mxCell id="z5KGhQnNiYaVHTY9umxS-57" value="board : Board" style="text;strokeColor=none;fillColor=none;align=left;verticalAlign=top;spacingLeft=4;spacingRight=4;overflow=hidden;rotatable=0;points=[[0,0.5],[1,0.5]];portConstraint=eastwest;whiteSpace=wrap;html=1;" vertex="1" parent="z5KGhQnNiYaVHTY9umxS-56">
          <mxGeometry y="26" width="240" height="26" as="geometry" />
        </mxCell>
        <mxCell id="z5KGhQnNiYaVHTY9umxS-58" value="players : List&amp;lt;Players&amp;gt;" style="text;strokeColor=none;fillColor=none;align=left;verticalAlign=top;spacingLeft=4;spacingRight=4;overflow=hidden;rotatable=0;points=[[0,0.5],[1,0.5]];portConstraint=eastwest;whiteSpace=wrap;html=1;" vertex="1" parent="z5KGhQnNiYaVHTY9umxS-56">
          <mxGeometry y="52" width="240" height="26" as="geometry" />
        </mxCell>
        <mxCell id="z5KGhQnNiYaVHTY9umxS-59" value="winner : Player&lt;div&gt;&lt;br&gt;&lt;/div&gt;&lt;div&gt;nextPlayerIndex : int&lt;/div&gt;&lt;div&gt;&lt;br&gt;&lt;/div&gt;&lt;div&gt;moves : List&amp;lt;Move&amp;gt;&lt;/div&gt;&lt;div&gt;&lt;br&gt;&lt;/div&gt;&lt;div&gt;winningStrategy : List&amp;lt;WinningStrategy&amp;gt;&lt;/div&gt;&lt;div&gt;&lt;br&gt;&lt;/div&gt;&lt;div&gt;gameState : GameState&amp;nbsp;&lt;/div&gt;" style="text;strokeColor=none;fillColor=none;align=left;verticalAlign=top;spacingLeft=4;spacingRight=4;overflow=hidden;rotatable=0;points=[[0,0.5],[1,0.5]];portConstraint=eastwest;whiteSpace=wrap;html=1;" vertex="1" parent="z5KGhQnNiYaVHTY9umxS-56">
          <mxGeometry y="78" width="240" height="162" as="geometry" />
        </mxCell>
        <mxCell id="z5KGhQnNiYaVHTY9umxS-60" value="" style="line;strokeWidth=1;fillColor=none;align=left;verticalAlign=middle;spacingTop=-1;spacingLeft=3;spacingRight=3;rotatable=0;labelPosition=right;points=[];portConstraint=eastwest;strokeColor=inherit;" vertex="1" parent="z5KGhQnNiYaVHTY9umxS-56">
          <mxGeometry y="240" width="240" height="8" as="geometry" />
        </mxCell>
        <mxCell id="z5KGhQnNiYaVHTY9umxS-61" value="makeMove()&lt;div&gt;conductToss()&lt;/div&gt;" style="text;strokeColor=none;fillColor=none;align=left;verticalAlign=top;spacingLeft=4;spacingRight=4;overflow=hidden;rotatable=0;points=[[0,0.5],[1,0.5]];portConstraint=eastwest;whiteSpace=wrap;html=1;" vertex="1" parent="z5KGhQnNiYaVHTY9umxS-56">
          <mxGeometry y="248" width="240" height="42" as="geometry" />
        </mxCell>
      </root>
    </mxGraphModel>
  </diagram>
</mxfile>
